<svg width="215" height="215" viewBox="0 0 215 215" fill="none" xmlns="http://www.w3.org/2000/svg">
<rect width="215" height="215" fill="#400A29"/>
<path fill-rule="evenodd" clip-rule="evenodd" d="M107.499 33C66.3544 33 33 66.3544 33 107.499C33 150.035 68.5548 183.937 111.043 181.914L157.693 179.692C169.6 179.125 179.125 169.6 179.692 157.693L181.914 111.043C183.937 68.5548 150.035 33 107.499 33ZM148.834 84.3047C149.833 86.0123 150.589 87.8513 151.08 89.7681C151.591 91.7504 151.836 93.7918 151.809 95.8387C151.827 99.7408 150.8 103.577 148.834 106.948C147.863 108.72 146.63 110.335 145.192 111.743L109.315 147.62L73.4382 111.743C71.9983 110.315 70.7533 108.702 69.7351 106.948C68.7924 105.241 68.0587 103.427 67.5498 101.545C67.0641 99.6874 66.8213 97.7691 66.8213 95.8387C66.7937 93.7918 67.0387 91.7504 67.5498 89.7681C68.5172 85.8661 70.5569 82.3125 73.4382 79.5089C75.5468 77.4117 78.041 75.7421 80.7835 74.5918C86.3067 72.325 92.5005 72.325 98.0238 74.5918C100.617 75.6896 103 77.2302 105.066 79.1447L105.369 79.5089L109.315 83.4548L113.261 79.5089L113.564 79.1447C115.63 77.2302 118.013 75.6896 120.606 74.5918C126.129 72.325 132.323 72.325 137.846 74.5918C140.589 75.7421 143.083 77.4117 145.192 79.5089C146.648 80.9085 147.877 82.5265 148.834 84.3047Z" fill="#FB0291"/>
</svg>
