<svg width="158" height="33" viewBox="0 0 158 33" fill="none" xmlns="http://www.w3.org/2000/svg">
<path d="M56.0633 9.64524H48.3892V13.6934H55.6659V16.6984H48.3892V24H45.111V6.61535H56.0633V9.64524Z" fill="#121212"/>
<path d="M58.1399 24V6.61535H61.294V24H58.1399Z" fill="#121212"/>
<path d="M67.4166 9.27271C67.0689 9.6204 66.564 9.79425 65.9017 9.79425C65.2394 9.79425 64.7262 9.6204 64.3619 9.27271C64.0142 8.92502 63.8404 8.42832 63.8404 7.7826C63.8404 6.49117 64.5275 5.84546 65.9017 5.84546C66.564 5.84546 67.0689 6.0193 67.4166 6.367C67.7809 6.69813 67.963 7.17 67.963 7.7826C67.963 8.42832 67.7809 8.92502 67.4166 9.27271ZM64.3371 24V11.8307H67.4911V24H64.3371Z" fill="#121212"/>
<path d="M77.2397 11.6321C77.9185 11.6321 78.407 11.69 78.705 11.8059V14.7861C78.2745 14.6205 77.7281 14.5378 77.0659 14.5378C76.0228 14.5378 75.1949 14.902 74.5823 15.6305C73.9863 16.359 73.6883 17.4683 73.6883 18.9584V24H70.5342V11.8307H73.6883V15.2828C74.1188 12.849 75.3026 11.6321 77.2397 11.6321Z" fill="#121212"/>
<path d="M88.1647 14.6123H84.6381V21.2184H87.8666V24H85.2589C84.1331 24 83.2225 23.6523 82.5271 22.9569C81.8317 22.2615 81.484 21.3509 81.484 20.225V14.6123H79.1495V11.8307H81.484V8.2048H84.6381V11.8307H88.1647V14.6123Z" fill="#121212"/>
<path d="M102.548 24L101.058 19.8525H93.6819L92.1918 24H88.6901L95.0976 6.61535H99.6921L106.05 24H102.548ZM94.725 16.9468H100.015L98.351 12.3274L97.3824 9.27271L96.3641 12.3274L94.725 16.9468Z" fill="#121212"/>
<path d="M116.025 11.8307H119.179V22.5099C119.179 24.3808 118.616 25.8378 117.49 26.8808C116.381 27.9405 114.833 28.4703 112.846 28.4703C111.273 28.4703 109.949 28.1888 108.873 27.6259C107.813 27.063 107.134 26.2517 106.836 25.1921L109.866 23.9255C110.081 24.7036 110.421 25.2252 110.884 25.4901C111.364 25.7715 112.068 25.9123 112.995 25.9123C114.022 25.9123 114.783 25.6805 115.28 25.2169C115.777 24.7699 116.025 24.0579 116.025 23.0811V20.7714C115.197 22.4602 113.815 23.3046 111.878 23.3046C110.321 23.3046 109.071 22.7665 108.127 21.6903C107.2 20.5975 106.737 19.1737 106.737 17.4186C106.737 15.6636 107.192 14.2563 108.103 13.1967C109.013 12.137 110.238 11.6072 111.778 11.6072C113.765 11.6072 115.181 12.4764 116.025 14.2149V11.8307ZM112.995 20.523C115.098 20.523 116.149 19.4965 116.149 17.4435C116.149 15.3904 115.106 14.3639 113.02 14.3639C110.967 14.3639 109.94 15.3904 109.94 17.4435C109.94 19.4965 110.959 20.523 112.995 20.523Z" fill="#121212"/>
<path d="M133.295 17.7415C133.295 18.1885 133.287 18.5776 133.271 18.9088H124.628C124.727 19.9187 125.009 20.6555 125.472 21.1191C125.952 21.5661 126.673 21.7896 127.633 21.7896C128.345 21.7896 128.891 21.6655 129.272 21.4171C129.653 21.1688 129.992 20.7217 130.29 20.076L133.022 21.0694C132.194 23.1887 130.373 24.2483 127.558 24.2483C125.688 24.2483 124.181 23.6771 123.038 22.5347C121.913 21.3923 121.35 19.8773 121.35 17.9899C121.35 16.0858 121.913 14.546 123.038 13.3705C124.181 12.1784 125.654 11.5824 127.459 11.5824C129.214 11.5824 130.621 12.1453 131.681 13.2712C132.757 14.3805 133.295 15.8706 133.295 17.7415ZM127.484 13.9666C126.606 13.9666 125.936 14.1901 125.472 14.6371C125.025 15.0676 124.744 15.7712 124.628 16.7481H130.166C130.15 15.7381 129.926 15.0262 129.496 14.6123C129.065 14.1818 128.395 13.9666 127.484 13.9666Z" fill="#121212"/>
<path d="M142.676 11.5824C145.573 11.5824 147.022 13.296 147.022 16.7233V24H143.868V16.8971C143.868 15.258 143.082 14.4384 141.509 14.4384C140.615 14.4384 139.911 14.7613 139.398 15.407C138.901 16.0362 138.653 16.9633 138.653 18.1885V24H135.499V11.8307H138.653V14.6619C139.282 12.6089 140.623 11.5824 142.676 11.5824Z" fill="#121212"/>
<path d="M157.325 14.6123H153.798V21.2184H157.027V24H154.419C153.293 24 152.383 23.6523 151.687 22.9569C150.992 22.2615 150.644 21.3509 150.644 20.225V14.6123H148.31V11.8307H150.644V8.2048H153.798V11.8307H157.325V14.6123Z" fill="#121212"/>
<path fill-rule="evenodd" clip-rule="evenodd" d="M16.1074 0C7.21151 0 0 7.21151 0 16.1074C0 25.304 7.68726 32.6339 16.8735 32.1965L26.9597 31.7162C29.5342 31.5936 31.5936 29.5342 31.7162 26.9597L32.1965 16.8735C32.6339 7.68726 25.304 0 16.1074 0ZM25.0444 11.0925C25.2605 11.4617 25.4239 11.8593 25.53 12.2738C25.6405 12.7023 25.6935 13.1437 25.6875 13.5863C25.6914 14.4299 25.4693 15.2593 25.0444 15.9881C24.8344 16.3714 24.5679 16.7205 24.2569 17.025L16.5 24.7819L8.74312 17.025C8.43182 16.7161 8.16263 16.3674 7.9425 15.9881C7.73867 15.6191 7.58003 15.2269 7.47 14.82C7.365 14.4184 7.3125 14.0036 7.3125 13.5863C7.30653 13.1437 7.3595 12.7023 7.47 12.2738C7.67917 11.4301 8.12016 10.6618 8.74312 10.0556C9.19902 9.60219 9.73829 9.24119 10.3312 8.9925C11.5254 8.5024 12.8646 8.5024 14.0587 8.9925C14.6195 9.22985 15.1347 9.56294 15.5813 9.97688L15.6469 10.0556L16.5 10.9088L17.3531 10.0556L17.4187 9.97688C17.8653 9.56294 18.3805 9.22985 18.9412 8.9925C20.1354 8.5024 21.4746 8.5024 22.6687 8.9925C23.2617 9.24119 23.801 9.60219 24.2569 10.0556C24.5717 10.3582 24.8374 10.708 25.0444 11.0925Z" fill="#FB0291"/>
</svg>
