<svg width="143" height="35" viewBox="0 0 143 35" fill="none" xmlns="http://www.w3.org/2000/svg">
<path d="M9.25955 32.9423L0 35L2.05767 25.7404C0.74452 23.2848 0 20.4794 0 17.5C0 7.83501 7.83501 0 17.5 0C27.1649 0 35 7.83501 35 17.5C35 27.1649 27.1649 35 17.5 35C14.5206 35 11.7152 34.2555 9.25955 32.9423ZM9.76631 29.2443L10.91 29.8559C12.9193 30.9304 15.1646 31.5 17.5 31.5C25.232 31.5 31.5 25.232 31.5 17.5C31.5 9.76801 25.232 3.5 17.5 3.5C9.76801 3.5 3.5 9.76801 3.5 17.5C3.5 19.8354 4.06961 22.0806 5.14411 24.09L5.75568 25.2336L4.60978 30.3902L9.76631 29.2443Z" fill="#6046C8"/>
<path d="M9.4231 15.175C9.4231 12.7418 11.412 10.7692 13.8654 10.7692C15.3678 10.7692 16.696 11.509 17.5 12.6412C18.304 11.509 19.6322 10.7692 21.1346 10.7692C23.5881 10.7692 25.5769 12.7418 25.5769 15.175C25.5769 21.183 17.4999 25.5769 17.4999 25.5769C17.4999 25.5769 9.4231 21.183 9.4231 15.175Z" fill="#6046C8"/>
<path d="M45.2642 25V10.4545H54.8949V12.9901H48.3395V16.456H54.2557V18.9915H48.3395V25H45.2642ZM59.9322 10.4545V25H56.9066V10.4545H59.9322ZM62.3558 25V14.0909H65.3814V25H62.3558ZM63.8757 12.6847C63.4259 12.6847 63.04 12.5355 62.718 12.2372C62.4008 11.9342 62.2422 11.572 62.2422 11.1506C62.2422 10.7339 62.4008 10.3764 62.718 10.0781C63.04 9.77509 63.4259 9.62358 63.8757 9.62358C64.3255 9.62358 64.709 9.77509 65.0263 10.0781C65.3482 10.3764 65.5092 10.7339 65.5092 11.1506C65.5092 11.572 65.3482 11.9342 65.0263 12.2372C64.709 12.5355 64.3255 12.6847 63.8757 12.6847ZM67.805 25V14.0909H70.7383V15.9943H70.8519C71.0508 15.3172 71.3846 14.8059 71.8533 14.4602C72.3221 14.1098 72.8619 13.9347 73.4727 13.9347C73.6242 13.9347 73.7875 13.9441 73.9627 13.9631C74.1379 13.982 74.2918 14.008 74.4244 14.0412V16.7259C74.2823 16.6832 74.0858 16.6454 73.8349 16.6122C73.5839 16.5791 73.3543 16.5625 73.146 16.5625C72.7009 16.5625 72.3031 16.6596 71.9528 16.8537C71.6071 17.0431 71.3325 17.3082 71.1289 17.6491C70.93 17.9901 70.8306 18.383 70.8306 18.8281V25H67.805ZM82.3381 14.0909V16.3636H75.7685V14.0909H82.3381ZM77.2599 11.4773H80.2855V21.6477C80.2855 21.9271 80.3281 22.1449 80.4134 22.3011C80.4986 22.4527 80.617 22.5592 80.7685 22.6207C80.9247 22.6823 81.1046 22.7131 81.3082 22.7131C81.4503 22.7131 81.5923 22.7012 81.7344 22.6776C81.8764 22.6491 81.9853 22.6278 82.0611 22.6136L82.5369 24.8651C82.3854 24.9124 82.1723 24.9669 81.8977 25.0284C81.6231 25.0947 81.2893 25.1349 80.8963 25.1491C80.1671 25.1776 79.5279 25.0805 78.9787 24.858C78.4342 24.6354 78.0104 24.2898 77.7074 23.821C77.4044 23.3523 77.2552 22.7604 77.2599 22.0455V11.4773ZM86.8729 25H83.5774L88.5987 10.4545H92.5618L97.576 25H94.2805L90.6371 13.7784H90.5234L86.8729 25ZM86.6669 19.2827H94.451V21.6832H86.6669V19.2827ZM103.677 29.3182C102.697 29.3182 101.856 29.1832 101.156 28.9134C100.46 28.6482 99.9055 28.286 99.4936 27.8267C99.0817 27.3674 98.8142 26.8513 98.6911 26.2784L101.489 25.902C101.575 26.1198 101.71 26.3234 101.894 26.5128C102.079 26.7022 102.323 26.8537 102.626 26.9673C102.933 27.0857 103.308 27.1449 103.748 27.1449C104.406 27.1449 104.948 26.9839 105.374 26.6619C105.805 26.3447 106.021 25.812 106.021 25.0639V23.0682H105.893C105.76 23.3712 105.561 23.6577 105.296 23.9276C105.031 24.1974 104.69 24.4176 104.273 24.5881C103.857 24.7585 103.36 24.8438 102.782 24.8438C101.963 24.8438 101.217 24.6544 100.545 24.2756C99.8771 23.892 99.3445 23.3073 98.9467 22.5213C98.5537 21.7306 98.3572 20.7315 98.3572 19.5241C98.3572 18.2884 98.5585 17.2562 98.9609 16.4276C99.3634 15.599 99.8984 14.9787 100.566 14.5668C101.238 14.1548 101.975 13.9489 102.775 13.9489C103.386 13.9489 103.897 14.053 104.309 14.2614C104.721 14.465 105.052 14.7206 105.303 15.0284C105.559 15.3314 105.755 15.6297 105.893 15.9233H106.006V14.0909H109.011V25.1065C109.011 26.0346 108.783 26.8111 108.329 27.4361C107.874 28.0611 107.245 28.5298 106.44 28.8423C105.639 29.1596 104.719 29.3182 103.677 29.3182ZM103.741 22.571C104.228 22.571 104.64 22.4503 104.977 22.2088C105.317 21.9626 105.578 21.6122 105.758 21.1577C105.942 20.6984 106.035 20.1491 106.035 19.5099C106.035 18.8707 105.945 18.3168 105.765 17.848C105.585 17.3745 105.325 17.0076 104.984 16.7472C104.643 16.4867 104.228 16.3565 103.741 16.3565C103.244 16.3565 102.825 16.4915 102.484 16.7614C102.143 17.0265 101.885 17.3958 101.71 17.8693C101.534 18.3428 101.447 18.8897 101.447 19.5099C101.447 20.1397 101.534 20.6842 101.71 21.1435C101.889 21.598 102.147 21.9508 102.484 22.2017C102.825 22.4479 103.244 22.571 103.741 22.571ZM116.39 25.2131C115.268 25.2131 114.302 24.9858 113.492 24.5312C112.687 24.072 112.067 23.4233 111.631 22.5852C111.196 21.7424 110.978 20.7457 110.978 19.5952C110.978 18.473 111.196 17.4882 111.631 16.6406C112.067 15.7931 112.68 15.1326 113.471 14.6591C114.266 14.1856 115.199 13.9489 116.269 13.9489C116.989 13.9489 117.659 14.0649 118.279 14.2969C118.904 14.5241 119.449 14.8674 119.913 15.3267C120.381 15.786 120.746 16.3636 121.006 17.0597C121.267 17.7509 121.397 18.5606 121.397 19.4886V20.3196H112.185V18.4446H118.549C118.549 18.009 118.454 17.6231 118.265 17.2869C118.076 16.9508 117.813 16.688 117.477 16.4986C117.145 16.3045 116.759 16.2074 116.319 16.2074C115.86 16.2074 115.452 16.3139 115.097 16.527C114.747 16.7353 114.472 17.017 114.273 17.3722C114.075 17.7225 113.973 18.1132 113.968 18.544V20.3267C113.968 20.8665 114.067 21.3329 114.266 21.7259C114.47 22.1188 114.756 22.4219 115.126 22.6349C115.495 22.848 115.933 22.9545 116.44 22.9545C116.776 22.9545 117.084 22.9072 117.363 22.8125C117.642 22.7178 117.881 22.5758 118.08 22.3864C118.279 22.197 118.431 21.965 118.535 21.6903L121.333 21.875C121.191 22.5473 120.9 23.1345 120.46 23.6364C120.024 24.1335 119.46 24.5218 118.769 24.8011C118.083 25.0758 117.29 25.2131 116.39 25.2131ZM126.397 18.6932V25H123.371V14.0909H126.255V16.0156H126.383C126.624 15.3812 127.029 14.8793 127.597 14.5099C128.165 14.1359 128.854 13.9489 129.664 13.9489C130.422 13.9489 131.082 14.1146 131.646 14.446C132.209 14.7775 132.647 15.2509 132.96 15.8665C133.272 16.4773 133.428 17.2064 133.428 18.054V25H130.403V18.5938C130.407 17.9261 130.237 17.4053 129.891 17.0312C129.546 16.6525 129.07 16.4631 128.464 16.4631C128.057 16.4631 127.697 16.5507 127.384 16.7259C127.076 16.901 126.835 17.1567 126.66 17.4929C126.489 17.8243 126.402 18.2244 126.397 18.6932ZM141.615 14.0909V16.3636H135.046V14.0909H141.615ZM136.537 11.4773H139.563V21.6477C139.563 21.9271 139.605 22.1449 139.691 22.3011C139.776 22.4527 139.894 22.5592 140.046 22.6207C140.202 22.6823 140.382 22.7131 140.586 22.7131C140.728 22.7131 140.87 22.7012 141.012 22.6776C141.154 22.6491 141.263 22.6278 141.338 22.6136L141.814 24.8651C141.663 24.9124 141.45 24.9669 141.175 25.0284C140.9 25.0947 140.567 25.1349 140.174 25.1491C139.444 25.1776 138.805 25.0805 138.256 24.858C137.712 24.6354 137.288 24.2898 136.985 23.821C136.682 23.3523 136.533 22.7604 136.537 22.0455V11.4773Z" fill="black"/>
</svg>
