<svg width="35" height="35" viewBox="0 0 35 35" fill="none" xmlns="http://www.w3.org/2000/svg">
<path d="M9.25955 32.9423L0 35L2.05767 25.7404C0.74452 23.2848 0 20.4794 0 17.5C0 7.83501 7.83501 0 17.5 0C27.1649 0 35 7.83501 35 17.5C35 27.1649 27.1649 35 17.5 35C14.5206 35 11.7152 34.2555 9.25955 32.9423ZM9.76631 29.2443L10.91 29.8559C12.9193 30.9304 15.1646 31.5 17.5 31.5C25.232 31.5 31.5 25.232 31.5 17.5C31.5 9.76801 25.232 3.5 17.5 3.5C9.76801 3.5 3.5 9.76801 3.5 17.5C3.5 19.8354 4.06961 22.0806 5.14411 24.09L5.75568 25.2336L4.60978 30.3902L9.76631 29.2443Z" fill="#6046C8"/>
<path d="M9.4231 15.175C9.4231 12.7418 11.412 10.7692 13.8654 10.7692C15.3678 10.7692 16.696 11.509 17.5 12.6412C18.304 11.509 19.6322 10.7692 21.1346 10.7692C23.5881 10.7692 25.5769 12.7418 25.5769 15.175C25.5769 21.183 17.4999 25.5769 17.4999 25.5769C17.4999 25.5769 9.4231 21.183 9.4231 15.175Z" fill="#6046C8"/>
</svg>
